<?xml version="1.0" encoding="UTF-8" standalone="no"?>
<!-- Created with Inkscape (http://www.inkscape.org/) -->

<svg
   width="121.65575"
   height="83.90052"
   viewBox="0 0 121.65575 83.90052"
   version="1.1"
   id="svg5"
   xml:space="preserve"
   sodipodi:docname="yt.svg"
   inkscape:version="1.4.2 (ebf0e940, 2025-05-08)"
   xmlns:inkscape="http://www.inkscape.org/namespaces/inkscape"
   xmlns:sodipodi="http://sodipodi.sourceforge.net/DTD/sodipodi-0.dtd"
   xmlns="http://www.w3.org/2000/svg"
   xmlns:svg="http://www.w3.org/2000/svg"><sodipodi:namedview
     id="namedview1"
     pagecolor="#ffffff"
     bordercolor="#999999"
     borderopacity="1"
     inkscape:showpageshadow="0"
     inkscape:pageopacity="0"
     inkscape:pagecheckerboard="0"
     inkscape:deskcolor="#d1d1d1"
     inkscape:document-units="px"
     inkscape:zoom="1.0873821"
     inkscape:cx="55.178395"
     inkscape:cy="131.04869"
     inkscape:window-width="1440"
     inkscape:window-height="756"
     inkscape:window-x="0"
     inkscape:window-y="25"
     inkscape:window-maximized="0"
     inkscape:current-layer="svg5" /><defs
     id="defs2" /><g
     id="layer1"
     transform="translate(-54.079375,-137.39814)"><g
       id="g2366"><path
         d="m 114.84349,221.29866 c 0,0 38.11055,0 47.56362,-2.51702 5.32265,-1.42631 9.32554,-5.53743 10.73046,-10.61341 2.59756,-9.31296 2.59756,-28.90373 2.59756,-28.90373 0,0 0,-19.46492 -2.59756,-28.69398 -1.40492,-5.20183 -5.40781,-9.22906 -10.73046,-10.61341 -9.45307,-2.55897 -47.56362,-2.55897 -47.56362,-2.55897 0,0 -38.025522,0 -47.436056,2.55897 -5.237532,1.38435 -9.325383,5.41158 -10.815742,10.61341 -2.512317,9.22906 -2.512317,28.69398 -2.512317,28.69398 0,0 0,19.59077 2.512317,28.90373 1.490359,5.07598 5.57821,9.1871 10.815742,10.61341 9.410534,2.51702 47.436056,2.51702 47.436056,2.51702 z"
         fill="#ff0033"
         id="path1412"
         style="stroke-width:0.0208149"
         clip-path="none" /><path
         d="m 133.78487,179.3484 -31.4627,-17.82886 v 35.65772 z"
         fill="#ffffff"
         id="path1414"
         style="stroke-width:0.0208149"
         clip-path="none" /></g></g><g
     id="g3"
     transform="translate(-54.079375,-137.39814)"><g
       id="g2"><path
         d="m 114.84349,221.29866 c 0,0 38.11055,0 47.56362,-2.51702 5.32265,-1.42631 9.32554,-5.53743 10.73046,-10.61341 2.59756,-9.31296 2.59756,-28.90373 2.59756,-28.90373 0,0 0,-19.46492 -2.59756,-28.69398 -1.40492,-5.20183 -5.40781,-9.22906 -10.73046,-10.61341 -9.45307,-2.55897 -47.56362,-2.55897 -47.56362,-2.55897 0,0 -38.025522,0 -47.436056,2.55897 -5.237532,1.38435 -9.325383,5.41158 -10.815742,10.61341 -2.512317,9.22906 -2.512317,28.69398 -2.512317,28.69398 0,0 0,19.59077 2.512317,28.90373 1.490359,5.07598 5.57821,9.1871 10.815742,10.61341 9.410534,2.51702 47.436056,2.51702 47.436056,2.51702 z"
         fill="#ff0033"
         id="path1"
         style="stroke-width:0.0208149"
         clip-path="none" /><path
         d="m 133.78487,179.3484 -31.4627,-17.82886 v 35.65772 z"
         fill="#ffffff"
         id="path2"
         style="stroke-width:0.0208149"
         clip-path="none" /></g></g></svg>
